<svg xmlns="http://www.w3.org/2000/svg" fill-rule="evenodd" stroke-linejoin="round" stroke-miterlimit="2" clip-rule="evenodd" viewBox="0 0 64 64" id="telegram-social-media-network-communication">
  <path fill="none" d="M0 0h64v64H0z"></path>
  <path d="M32 7C18.203 7 7 18.202 7 32 7 45.8 18.202 57 32 57 45.8 57 57 45.8 57 32 57 18.203 45.8 7 32 7Zm10.868 12.47a1.998 1.998 0 0 1 2.546 2.478c-1.96 6.437-5.958 19.578-7.801 25.635a2 2 0 0 1-3.328.832c-2.602-2.6-6.633-6.632-8.25-8.25a1 1 0 0 1 0-1.414l10.208-10.208a1 1 0 0 0-1.318-1.499l-11.838 9.133a1 1 0 0 1-1.192.022l-6.1-4.358a2 2 0 0 1 .53-3.525l26.543-8.847Z"></path>
</svg>
